<?xml version="1.0" encoding="UTF-8"?>
<!DOCTYPE svg PUBLIC "-//W3C//DTD SVG 1.0//EN" "http://www.w3.org/TR/2001/REC-SVG-20010904/DTD/svg10.dtd">
<!-- Creator: CorelDRAW 2019 -->
<svg xmlns="http://www.w3.org/2000/svg" xml:space="preserve" width="213mm" height="265.5mm" version="1.0" shape-rendering="geometricPrecision" text-rendering="geometricPrecision" image-rendering="optimizeQuality" fill-rule="evenodd" clip-rule="evenodd" viewBox="0 0 21300 26550" xmlns:xlink="http://www.w3.org/1999/xlink" xmlns:xodm="http://www.corel.com/coreldraw/odm/2003">
 <g id="Слой_x0020_1">
  <metadata id="CorelCorpID_0Corel-Layer"/>
  <path fill="#00246B" d="M20387 22474c0,1129 -1022,1599 -1802,1599l-6120 0c-801,0 -1204,878 -1474,1395 -453,-904 -667,-1395 -1317,-1395l-6692 0c-1172,0 -1911,-909 -1911,-1951l0 -21057 19316 0 0 21409z"/>
  <path fill="#DEB500" fill-rule="nonzero" d="M20287 1199l0 21163c0,1115 -1012,1580 -1784,1580l-6163 0c-590,13 -1017,553 -1342,1279 -319,-612 -429,-1279 -1363,-1279l-6556 0c-1160,0 -1892,-898 -1892,-1928l0 -20813 19099 -2zm0 2l0 -2 0 2z"/>
  <path fill="#00246B" fill-rule="nonzero" d="M17890 19437l1239 -18c229,-49 265,-285 200,-453 620,-260 206,-741 482,-785 -8,-85 -90,-176 -185,-207 81,0 201,-78 212,-154 -497,-186 -359,-948 -346,-1671 -956,-584 -937,-1172 -1357,-2112 -149,-332 -397,-789 -763,-1134 -286,-270 -771,-1145 -46,-1150l1252 -9c825,-6 1142,-396 1141,-1013 -1,-461 -243,-930 -1034,-928l-3331 7c-10,-185 -472,-418 -772,6 -1016,-100 -1144,-962 -190,-1271 -138,5 -871,-50 -982,200 -83,-94 -447,-339 -659,-103 -147,-85 -598,-158 -641,-6 -147,-140 -874,-120 -1107,-125 735,459 445,1714 1850,1716l1795 3c98,255 530,280 691,-33l3347 13c395,-7 568,272 562,512 -9,338 -306,546 -748,546l-2907 2c19,-77 78,-189 70,-325 -172,193 -297,233 -562,233 -520,0 -969,7 -1488,10 37,-95 54,-178 -28,-276 -78,197 -469,175 -655,176l-2692 10c10,-80 8,-135 -20,-194 -240,302 -550,220 -628,51 -59,-128 -13,-339 282,-282 349,68 435,-83 453,-227 58,-446 -448,-280 -610,-279 -735,4 -579,-679 128,-435 585,202 1049,-401 437,-851 20,-140 -19,-249 -57,-359l-1038 -4c-323,-490 -866,-230 -977,-140 -710,-536 -1149,155 -1747,-523 -203,493 33,959 26,961 -477,86 -657,505 -656,836 -75,136 -157,217 -298,228 43,96 106,158 249,117 -183,230 -412,690 -480,1087 -121,172 -277,355 -414,424 145,37 264,53 463,-63 -249,276 -259,489 -199,825 -92,260 -269,513 -403,591l485 -3c-5,80 -5,161 0,241l-1558 6c-108,-340 -478,-637 -1004,-552 51,-1417 -99,-2758 778,-4348 -220,-17 -416,19 -595,78 -61,-266 -315,-714 -417,-791 -19,-14 -374,435 -465,803 -173,-75 -353,-87 -594,-102 235,603 808,1489 826,4521 -618,14 -572,522 -370,799 -298,287 -280,628 -53,888 -96,339 85,629 398,759l6 796c154,-1 311,-3 467,-5l2 -771c227,-31 505,-199 774,-420 38,70 73,195 14,308 58,-1 393,-29 524,-216l-8 177c149,7 525,-84 553,-372 221,213 586,386 1106,378l0 224c202,22 306,48 460,-99 282,329 329,830 147,886 -2,38 152,-8 243,110l-1026 1760c-210,240 -401,368 -721,580 -656,10 -1140,157 -1089,1000 130,10 424,-49 568,-148 13,38 42,130 57,168 114,-5 401,0 556,-132l19 119c216,-9 370,-17 639,-133 616,160 1202,-1 1021,-687 225,45 471,-8 598,-233 -87,-40 -151,-144 -137,-222 265,32 437,-82 509,-247 -96,2 -224,-82 -200,-372 880,-383 1243,-863 1643,-1150 261,274 633,105 733,-13 -8,-92 -4,-185 -68,-258 199,79 364,97 626,-17 1,-82 10,-76 -21,-195 72,25 188,43 368,9 -1,-156 -31,-302 -67,-355 1248,-71 1848,-424 2503,-639 -17,1391 1126,1963 1034,2627 -40,283 -515,679 -819,885 -857,-11 -1045,400 -1022,954 203,16 438,-40 599,-131l38 144c395,-40 881,-57 1243,-294 290,291 923,264 751,-381 184,-23 391,-263 168,-438 124,23 281,-36 347,-206 -108,-114 -210,-233 -173,-385 69,-283 443,-181 556,-541 -553,-360 -315,-1370 -37,-2050 263,563 617,853 1545,1319 643,27 1862,1187 333,1969 -455,-17 -1142,179 -669,952l319 -81c-14,38 20,93 69,132l631 -136 0 106z"/>
  <path fill="#DEB500" fill-rule="nonzero" d="M18641 18623c8,0 36,-23 38,-32 14,-81 -80,-85 -474,-79 -183,3 -285,-12 -412,-55 106,-220 583,-229 660,-784 59,-427 -260,-743 -613,-1079 -350,-333 -795,-470 -1136,-603 -832,-323 -1028,-1518 -1839,-1762 -252,-76 -460,-87 -574,-71 -176,25 -366,85 -561,180 -924,451 -2278,1078 -3564,1123 598,-447 695,-821 715,-1343 271,-3 1154,20 1161,-738l1014 1c1166,1 1406,-243 1435,-773 477,-110 622,-399 639,-801 265,-32 405,-251 447,-475l3032 12c1003,4 935,-1278 108,-1279l-3649 -5c-69,-39 -89,-116 -7,-176 254,-12 265,14 3632,-10 631,30 914,435 911,858 -3,398 -340,790 -996,834l-1695 2c-269,-2 -449,119 -458,382 -25,679 1215,1270 1459,1941 80,220 186,559 364,883 164,299 315,650 458,926 132,255 283,363 147,587 -38,62 -75,76 -180,82 -417,24 -1229,-500 -1767,-1489 273,792 839,1308 1385,1659 219,140 419,200 563,266 399,182 492,615 483,771 -37,591 171,826 34,941 -25,21 -111,58 -168,73 -122,32 -138,-32 -123,-249 9,-121 41,-404 53,-774 -248,437 -344,852 -225,1244 48,7 117,55 130,120 34,184 -369,305 -555,321 -221,19 -467,-90 -498,-266 -30,-172 99,-379 625,-366z"/>
  <path fill="#DEB500" fill-rule="nonzero" d="M17763 18580c74,-5 182,12 285,46 -80,0 -151,31 -228,323 -23,88 -78,180 -164,188 -41,4 -115,10 -140,-2 -81,-39 -162,-154 -168,-249 -9,-149 143,-287 414,-306z"/>
  <path fill="#DEB500" fill-rule="nonzero" d="M17486 18601c-472,54 -128,480 -490,467 -144,-5 -164,-72 -156,-163 21,-222 407,-362 645,-304z"/>
  <path fill="#DEB500" fill-rule="nonzero" d="M13761 18521c-173,-45 -243,-51 -404,-42 625,-426 840,-760 844,-1047 5,-456 -1831,-2214 -303,-2806 324,328 837,656 1335,159l10 2320c-510,-8 -691,-451 -833,-1027 -6,806 119,1023 465,1282 95,71 102,152 99,240 -4,101 -35,211 -168,323 -107,90 -285,805 -200,1045 24,69 19,166 -9,192 -83,84 -195,90 -272,25 -135,-115 -61,-623 278,-1140 -360,289 -519,722 -573,971 -47,41 -397,135 -614,158 -315,34 -455,-126 -448,-276 17,-367 496,-322 736,-262 93,24 144,28 160,-26 15,-52 -60,-77 -105,-89z"/>
  <path fill="#DEB500" fill-rule="nonzero" d="M12586 19230c-304,-224 -9,-562 276,-573 -20,43 -26,102 -23,163 8,167 3,355 -253,410z"/>
  <path fill="#DEB500" fill-rule="nonzero" d="M6220 19095c68,-1527 1037,-2318 2201,-3140 -301,8 -522,-57 -697,-278 -63,410 -190,637 -560,848 2,-323 -101,-595 -214,-865 -208,242 -1216,1940 -1351,2236 230,-89 354,-217 780,-200 69,3 31,50 -12,59 -326,67 -940,194 -1422,755 100,106 232,157 534,189 -368,47 -425,199 -425,319 0,172 234,275 503,220 95,25 516,66 664,-144z"/>
  <path fill="#DEB500" fill-rule="nonzero" d="M5069 18730c-289,-26 -207,443 -471,451 -36,1 -61,0 -97,-2 -405,-272 124,-671 568,-449z"/>
  <path fill="#DEB500" fill-rule="nonzero" d="M4520 18680c-480,-87 -715,161 -692,316 9,64 46,115 126,120 23,1 48,2 73,1 145,-3 116,-143 138,-213 48,-152 109,-221 355,-224z"/>
  <path fill="#DEB500" fill-rule="nonzero" d="M14726 18336c77,-9 226,54 213,290 -163,3 -241,-90 -213,-290z"/>
  <path fill="#DEB500" fill-rule="nonzero" d="M6708 18175c101,91 58,187 244,322 -670,-82 -509,-559 -244,-322z"/>
  <path fill="#DEB500" fill-rule="nonzero" d="M19448 18028c119,-32 189,14 214,123 -71,36 -167,9 -214,-123z"/>
  <path fill="#DEB500" fill-rule="nonzero" d="M14934 17896c97,-8 225,132 205,290 -201,32 -227,-193 -205,-290z"/>
  <path fill="#DEB500" fill-rule="nonzero" d="M7286 18054c-190,69 -398,-32 -353,-176 101,-318 289,109 353,176z"/>
  <path fill="#DEB500" fill-rule="nonzero" d="M19434 17678c103,-53 170,5 228,110 -85,78 -195,17 -228,-110z"/>
  <path fill="#DEB500" fill-rule="nonzero" d="M7063 17345c562,-572 987,-941 1677,-1382 196,-14 345,-26 585,-85 -197,257 -2092,1444 -2263,1467z"/>
  <path fill="#DEB500" fill-rule="nonzero" d="M9131 16154c148,-51 366,53 364,235 -173,39 -283,-11 -364,-235z"/>
  <path fill="#DEB500" fill-rule="nonzero" d="M6981 15319c90,6 158,65 249,129 4,98 8,196 13,294l40 -1c-8,-84 11,-129 36,-201 69,17 69,17 109,44 14,100 -7,561 -188,565 -2,-101 -235,-565 -259,-830z"/>
  <path fill="#DEB500" fill-rule="nonzero" d="M9597 15749c224,-14 352,1 376,139 9,55 2,88 2,146 -223,16 -268,-42 -378,-285z"/>
  <path fill="#DEB500" fill-rule="nonzero" d="M10029 15623c123,1 332,-2 397,264 -263,11 -321,-90 -397,-264z"/>
  <path fill="#DEB500" fill-rule="nonzero" d="M2257 15877l-4 -884 199 -140 -1 1024 -194 0z"/>
  <path fill="#DEB500" fill-rule="nonzero" d="M6502 15714c-230,-335 -399,-611 -129,-801 -23,448 237,491 138,352 -60,-84 -119,-256 70,-473 49,93 79,203 77,332 -4,257 -22,398 -156,590z"/>
  <path fill="#DEB500" fill-rule="nonzero" d="M7732 14881c-35,-473 388,-939 642,-1276 -79,387 -233,957 -127,1322 60,206 270,477 578,565 -148,54 -295,64 -429,54 -341,-25 -639,-338 -663,-666z"/>
  <path fill="#DEB500" fill-rule="nonzero" d="M8319 13589c-338,401 -1204,917 -511,1821 -1134,-366 -1023,-1527 511,-1821z"/>
  <path fill="#DEB500" fill-rule="nonzero" d="M8407 13607c141,646 428,1691 1413,1364 -145,228 -486,474 -753,431 -311,-51 -519,-284 -602,-527 -140,-410 -76,-929 -57,-1268z"/>
  <path fill="#DEB500" fill-rule="nonzero" d="M8473 13587c990,756 1331,979 1845,600 -41,386 -339,736 -762,740 -479,5 -1036,-998 -1083,-1340z"/>
  <path fill="#DEB500" fill-rule="nonzero" d="M14058 14558c332,-87 262,-86 474,-263 177,14 470,50 526,256 -222,224 -670,330 -1000,7z"/>
  <path fill="#DEB500" fill-rule="nonzero" d="M6495 14076c164,-765 1056,-561 1818,-563 -320,79 -885,155 -1165,443 -242,249 -366,573 -226,935 -249,-69 -488,-530 -427,-814z"/>
  <path fill="#DEB500" fill-rule="nonzero" d="M3577 14649c116,-76 225,-96 343,-68 -14,138 -190,238 -319,267 13,-39 47,-104 -23,-200z"/>
  <path fill="#DEB500" fill-rule="nonzero" d="M4075 14621c83,-40 248,-97 333,-30 -4,70 -194,225 -318,235 47,-93 24,-159 -15,-205z"/>
  <path fill="#DEB500" fill-rule="nonzero" d="M5923 14763c-52,-70 -457,-799 -10,-1005 -142,476 222,605 147,495 -154,-224 -94,-392 77,-533 113,261 86,888 -214,1043z"/>
  <path fill="#DEB500" fill-rule="nonzero" d="M2610 14771c140,-110 211,-314 197,-507 633,335 949,-393 1697,-617 263,-79 139,-294 -107,-106 -413,317 -637,357 -688,297 -125,-147 478,-589 755,-597l783 -8c34,356 175,311 -6,827 -29,81 -10,98 15,109 95,43 134,-208 354,-231l-1 670c-872,-287 -1449,-325 -1591,-316 -554,33 -790,589 -1409,479z"/>
  <path fill="#DEB500" fill-rule="nonzero" d="M1998 14610c-176,-158 310,-623 485,-459 182,170 -289,636 -485,459z"/>
  <path fill="#DEB500" fill-rule="nonzero" d="M8484 13510l2017 6c-117,602 -423,748 -757,699 -544,-79 -1259,-698 -1260,-705z"/>
  <path fill="#DEB500" fill-rule="nonzero" d="M3249 13303c-830,393 -923,-413 -585,-524 757,-250 1261,941 592,1277 -215,108 -532,36 -561,-125 -86,-481 470,-330 554,-628z"/>
  <path fill="#DEB500" fill-rule="nonzero" d="M2489 13823c-547,667 -1076,65 -353,-284 187,-28 330,116 353,284z"/>
  <path fill="#DEB500" fill-rule="nonzero" d="M10816 13778c87,-84 92,-217 51,-400l1017 4c-23,186 -340,396 -605,396l-463 -1z"/>
  <path fill="#DEB500" fill-rule="nonzero" d="M5533 13690c-156,-284 -265,-846 136,-960 -151,427 -5,596 47,564 3,-20 1,-42 -4,-67 -27,-129 -83,-343 215,-566 132,434 -152,880 -393,1028z"/>
  <path fill="#DEB500" fill-rule="nonzero" d="M2285 12912c125,148 104,332 -109,490 -402,-73 -529,-664 109,-490z"/>
  <path fill="#DEB500" fill-rule="nonzero" d="M6199 13221c32,-1065 1057,-1978 2086,-1980 1143,-2 2180,1029 2220,1972l-4305 8z"/>
  <path fill="#DEB500" fill-rule="nonzero" d="M12413 13090c120,-44 251,-104 248,-351l1641 -11c-197,337 -524,359 -866,360l-1024 2z"/>
  <path fill="#DEB500" fill-rule="nonzero" d="M11834 13022l-1057 0c-27,-199 -56,-279 -156,-367l1791 11c-58,224 -283,355 -578,356z"/>
  <path fill="#00246B" fill-rule="nonzero" d="M6393 13104l1115 -953 474 499 952 -884 1446 1330 -3987 9z"/>
  <path fill="#DEB500" fill-rule="nonzero" d="M8067 12737l849 -830 937 827 -1786 3z"/>
  <path fill="#DEB500" fill-rule="nonzero" d="M6987 12733l498 -432 433 435 -931 -3z"/>
  <path fill="#DEB500" fill-rule="nonzero" d="M2311 12781c-39,-2515 -219,-3502 -844,-4530 352,86 926,626 995,1633l1 -1186c261,-325 414,-350 817,-415 -515,492 -799,953 -800,1642l-4 2857 -165 -1z"/>
  <path fill="#DEB500" fill-rule="nonzero" d="M12825 12405c149,-64 282,-148 277,-381l1848 -6c-146,292 -490,378 -782,384l-1343 3z"/>
  <path fill="#DEB500" fill-rule="nonzero" d="M12165 12278l-1714 -4c-52,-196 -149,-300 -301,-390l2740 11c-48,277 -484,383 -725,383z"/>
  <path fill="#DEB500" fill-rule="nonzero" d="M5707 12335c123,-175 327,-936 779,-929 73,1 -509,381 -230,545 81,48 156,-325 366,-558 303,664 -472,925 -915,942z"/>
  <path fill="#DEB500" fill-rule="nonzero" d="M5242 12330c-32,-540 48,-848 439,-910 -238,400 -137,535 -83,540 18,2 30,-30 22,-91 -26,-186 80,-382 305,-451 -15,214 -100,491 -177,542 -49,32 -224,387 -506,370z"/>
  <path fill="#DEB500" fill-rule="nonzero" d="M13258 11659c137,-87 272,-171 285,-344l1923 -3c-82,325 -576,338 -981,341l-1226 6z"/>
  <path fill="#DEB500" fill-rule="nonzero" d="M12237 11588l-2131 3c148,-120 183,-260 176,-382l3033 3c-257,371 -665,374 -1078,376z"/>
  <path fill="#DEB500" fill-rule="nonzero" d="M8995 11075c36,-32 80,-39 123,-26 113,34 208,206 371,194 -268,-163 -270,-541 22,-502 -118,301 111,453 266,459 93,4 207,-24 360,-96 -271,549 -1413,207 -1142,-29z"/>
  <path fill="#DEB500" fill-rule="nonzero" d="M5944 10978c110,-346 326,-830 769,-672 -21,9 -184,118 -277,233 -98,120 -142,249 -99,290 85,82 179,-565 743,-499 -131,197 -459,517 -538,572 -170,119 -381,161 -598,76z"/>
  <path fill="#DEB500" fill-rule="nonzero" d="M6689 11110c-6,-81 445,-1004 783,-954 -160,276 -398,605 -272,618 56,6 201,-97 346,-721 23,1 291,1119 -857,1056z"/>
  <path fill="#DEB500" fill-rule="nonzero" d="M5473 10991c77,-659 238,-766 574,-863 -445,410 -179,606 -183,511 -5,-143 61,-318 380,-412 -188,540 -428,710 -772,764z"/>
  <path fill="#DEB500" fill-rule="nonzero" d="M8086 10520c-155,-548 436,-651 465,-705 -992,-332 -191,-1123 516,-902 474,148 65,687 -293,871 597,325 163,542 866,566 211,-180 525,-143 481,30 -33,131 -277,195 -394,138 -33,-16 -118,-9 -155,18 -57,41 -139,132 -247,174 -606,240 -1130,195 -1239,-191z"/>
  <path fill="#DEB500" fill-rule="nonzero" d="M14601 10072c7,-311 342,-586 609,-275 -137,-20 -343,37 -258,240 35,83 -292,75 -352,35z"/>
  <path fill="#DEB500" fill-rule="nonzero" d="M12208 8677c451,12 667,196 878,643 148,313 179,469 643,754 -651,5 -994,-302 -1084,-637 -79,-296 -93,-531 -437,-760z"/>
  <path fill="#DEB500" fill-rule="nonzero" d="M12793 8663c303,-89 543,168 613,490 -11,-380 206,-509 438,-502 -706,647 -70,1309 717,1282 -11,49 -22,97 -23,145 -372,21 -727,-60 -1000,-333 -375,-374 -370,-865 -745,-1082z"/>
  <path fill="#DEB500" fill-rule="nonzero" d="M11478 8622c506,-22 785,248 910,797 61,266 282,499 529,641 -387,-1 -654,-50 -821,-264 -317,-408 -246,-900 -618,-1174z"/>
  <path fill="#DEB500" fill-rule="nonzero" d="M6502 9821c47,-13 378,-742 1017,-519 -328,56 -447,292 -454,427 136,65 516,-484 775,-408 -154,722 -949,811 -1337,500z"/>
  <path fill="#DEB500" fill-rule="nonzero" d="M10245 9067c-494,-328 -827,32 -959,418 156,62 341,92 527,121 374,58 627,-152 432,-540z"/>
  <path fill="#DEB500" fill-rule="nonzero" d="M5897 9725c27,-384 446,-937 790,-745 -166,102 -327,257 -406,392 -29,50 -1,109 14,128 307,-322 425,-464 725,-295 -398,47 -557,754 -1122,520z"/>
  <path fill="#DEB500" fill-rule="nonzero" d="M7313 9115c252,-227 524,-632 84,-624 -201,3 -447,-62 -675,-286 186,89 343,137 523,108 190,-31 328,-73 451,-49 630,122 361,835 -383,852z"/>
  <path fill="#DEB500" fill-rule="nonzero" d="M8222 8935c34,-526 290,-685 821,-426 -450,248 -478,-47 -821,426z"/>
  <path fill="#DEB500" fill-rule="nonzero" d="M6533 8082c147,429 597,294 435,781 -265,171 -557,-360 -435,-781z"/>
  <path fill="#DEB500" fill-rule="nonzero" d="M9213 8650l771 0c66,0 79,42 77,86 -2,42 -10,86 -77,86l-769 2c-47,0 -69,-38 -71,-79 -2,-46 23,-95 69,-95z"/>
  <path fill="#DEB500" fill-rule="nonzero" d="M2426 8642l6 -1050c-86,71 -357,615 -389,748 137,56 280,151 383,302z"/>
  <path fill="#00246B" fill-rule="nonzero" d="M6641 7729c-7,-563 -31,-1104 -78,-1649 -55,-316 -226,-1223 -353,-1480 1012,-28 1274,551 1269,1427l285 1 1 702 1241 2 2 -703 279 0c-8,-816 359,-1563 1318,-1362 -418,948 -442,2038 -492,3063l-3473 -1z"/>
  <path fill="#DEB500" fill-rule="nonzero" d="M6731 7623c-16,-1028 -104,-1920 -374,-2892 851,128 707,1251 722,1864 118,-30 113,-211 240,-210l-1 910c178,-100 831,-433 1058,-282l-4 606 -1641 3z"/>
  <path fill="#DEB500" fill-rule="nonzero" d="M8389 6971l0 -135 694 0 4 -720 297 0c53,-867 258,-1423 1103,-1378 -615,206 -708,765 -707,1335l0 629c-60,-257 -182,-299 -227,-293l-2 1052c-229,-485 -741,-498 -1161,-490z"/>
  <path fill="#00246B" fill-rule="nonzero" d="M7957 2986c112,-344 257,-705 497,-980 173,252 325,574 420,974 214,1010 199,1770 -110,2785 -144,413 -316,754 -382,784 -48,22 -205,-348 -380,-799 -300,-773 -300,-1985 -45,-2764z"/>
  <path fill="#DEB500" fill-rule="nonzero" d="M8443 2134l-64 4300c-248,-517 -479,-1289 -494,-1864 -21,-845 183,-1775 557,-2435z"/>
  <path fill="#00246B" fill-rule="nonzero" d="M1552 22571c-2,-910 -4,-1820 -6,-2730l18495 0c-4,931 -6,1863 -8,2794 -125,759 -523,967 -1227,968 -1573,2 -3145,4 -4715,8 -86,-514 -903,-595 -1120,-598l-9 -2787 -896 -4 1 2244c-202,-5 -814,94 -819,-439l-8 -1245 -827 -3c5,286 -5,803 2,1090 17,703 1175,778 1654,758l-3 409 817 0c201,27 476,317 215,561l-9912 7c-604,0 -1635,-287 -1637,-1032z"/>
  <path fill="#DEB500" fill-rule="nonzero" d="M19808 21679l-832 -3 -13 851c-8,543 -853,429 -851,8 4,-1141 3,-1096 17,-1398 -2006,14 -614,-889 -604,-905 -266,1 -531,3 -796,6 -956,210 -730,926 524,888l13 1464c2,236 652,498 1318,486 802,-14 1200,-395 1203,-506l21 -892z"/>
  <path fill="#DEB500" fill-rule="nonzero" d="M16223 23071l3 -842c0,-49 -85,-224 -282,-273l-2 458c-1,302 -472,643 -1316,653 -555,7 -1271,-334 -1275,-635l-12 -2205 848 4 0 2176c0,670 881,714 880,11l-2 -2190 878 -1 -1 1617c414,8 1189,370 1195,625l14 602 -930 1z"/>
  <path fill="#DEB500" fill-rule="nonzero" d="M7617 22469l-15 -2233 883 4 3 435c505,10 1788,-36 1753,747l-847 5c-41,-595 -419,-642 -905,-642 3,616 6,1170 10,1788 2,224 217,368 453,366 266,-2 440,-107 442,-375l6 -863 840 1 2 786c-128,344 -503,599 -1285,593 -874,-7 -1337,-428 -1340,-611z"/>
  <path fill="#DEB500" fill-rule="nonzero" d="M4755 23046l864 -12 26 -2237c2,-147 135,-453 392,-452 313,0 391,338 391,471l-3 790 889 5 -4 -875c-1,-261 -608,-559 -1242,-549 -631,10 -1262,188 -1283,525l-30 2333z"/>
  <path fill="#DEB500" fill-rule="nonzero" d="M1829 22452l-15 -2233 883 4 3 435c505,10 1788,-36 1753,747l-847 5c-41,-595 -419,-642 -905,-642 3,616 5,1170 10,1788 2,224 217,368 453,366 266,-2 440,-107 442,-375l6 -863 840 1 -4 783c-128,344 -497,602 -1279,596 -874,-7 -1337,-428 -1340,-611z"/>
 </g>
</svg>