<?xml version="1.0" encoding="utf-8"?>
<!-- Svg Vector Icons : http://www.onlinewebfonts.com/icon -->
<!DOCTYPE svg PUBLIC "-//W3C//DTD SVG 1.1//EN" "http://www.w3.org/Graphics/SVG/1.1/DTD/svg11.dtd">
<svg version="1.1" xmlns="http://www.w3.org/2000/svg" xmlns:xlink="http://www.w3.org/1999/xlink" x="0px" y="0px" viewBox="0 0 256 256" enable-background="new 0 0 256 256" xml:space="preserve">
<metadata> Svg Vector Icons : http://www.onlinewebfonts.com/icon </metadata>
<g><g><g><path fill="#000000" d="M245.1,187.5c-17.4-11-40.6-25.9-58.5-37.8c-12.6-10-23-19.7-25.3-26.4c-7.1-20.9,7.1-46.4,7.1-46.4c1.1-5.6-2.6-0.2-2.6-0.2s-5.3,6.4-9.9,15.5c-1.6-0.6-3.8-1.3-6.4-2.1c1.9-10.6,4.7-18.7,4.7-18.7c1.1-5.5-2.7-0.2-2.7-0.2s-4.4,7.3-8.2,17.5c-1.9-0.4-4-0.7-6.1-1c0-11.3,0.6-19.9,0.6-19.9c1.1-5.5-2.7-0.2-2.7-0.2s-2.5,8.3-4.5,19.6c-0.8,0-1.6,0-2.4,0c-1,0-2,0-3,0.1c-2.1-11.3-4.6-19.6-4.6-19.6s-3.8-5.3-2.6,0.2c0,0,0.5,8.6,0.6,20c-2.1,0.3-4.1,0.7-6,1.2c-3.8-10.3-8.3-17.8-8.3-17.8s-3.8-5.3-2.6,0.2c0,0,3,8.3,4.8,19.2c-2.4,0.8-4.5,1.5-6.2,2.2c-4.7-9.4-10.2-16.1-10.2-16.1s-3.8-5.3-2.7,0.2c0,0,14.2,25.5,7.1,46.4c-2.7,8-16.8,20.2-32.5,31.9c-23.5,15.7-50.8,32-51.2,32.2c-0.7,0.4-1,1.3-0.8,2c0.2,0.8,0.9,1.3,1.8,1.3h232.3c0.8,0,1.5-0.5,1.8-1.3c0-0.2,0.1-0.3,0.1-0.5C246,188.4,245.7,187.9,245.1,187.5z M100.3,134.2c-11,18.6-33.4,44.7-39.6,53.1h-42C36.4,179.2,84.2,154.6,100.3,134.2z M116.1,126.2c0.1-0.2,0.1-0.4,0.2-0.7c-3,19-10,52.2-11.2,61.7h-42C74.8,178.2,108.7,147.6,116.1,126.2z M126.9,128.3c0.5-2.4,0.8-4.9,1-7.6c0.2,2.6,0.5,5.2,1,7.6c4.6,22,15.9,50.3,20.3,59h-42.6C111.1,178.5,122.3,150.2,126.9,128.3z M139.6,125.5c0.1,0.2,0.1,0.4,0.2,0.7c7.4,21.4,41.3,52,53,61h-42C149.6,177.7,142.6,144.5,139.6,125.5z M155.6,134.2c16.2,20.4,63.9,45.1,81.6,53.1h-42C188.9,178.9,166.6,152.8,155.6,134.2z M154.3,95.5c-3.5,7.9-6.1,17.4-4.6,26.4c-2.6-8.8-2.2-19.1-0.9-28.1C151.1,94.3,152.9,95,154.3,95.5z M138.1,112.5c-0.6-7-0.7-14.4-0.8-21.2c1.7,0.2,3.3,0.5,4.9,0.8C140,98.4,138.3,105.5,138.1,112.5z M128.3,90.7c0.6,0,1.2,0,1.7,0c-0.9,5.4-1.7,11.3-2,17.2c-0.4-5.9-1.1-11.8-2-17.1C126.7,90.7,127.5,90.7,128.3,90.7z M118.6,91.5c0,6.7-0.2,14-0.8,21c-0.3-6.8-1.9-13.8-4-20C115.4,92.1,117,91.8,118.6,91.5z M107.1,94.3c1.2,8.9,1.5,19-1,27.5c1.6-8.8-0.8-17.9-4.2-25.7C103.3,95.6,105.1,95,107.1,94.3z"/></g><g></g><g></g><g></g><g></g><g></g><g></g><g></g><g></g><g></g><g></g><g></g><g></g><g></g><g></g><g></g></g></g>
</svg>