<?xml version="1.0" encoding="iso-8859-1"?>
<!-- Uploaded to: SVG Repo, www.svgrepo.com, Generator: SVG Repo Mixer Tools -->
<svg fill="#000000" version="1.1" id="Layer_1" xmlns="http://www.w3.org/2000/svg" xmlns:xlink="http://www.w3.org/1999/xlink" 
	 viewBox="0 0 290.626 290.626" xml:space="preserve">
<g>
	<g>
		<g>
			<path d="M196.875,154.688H262.5v-37.5h-65.625V154.688z M253.125,129.408v12.956l-12.956-6.478L253.125,129.408z
				 M221.423,145.313l8.264-4.134l8.269,4.134H221.423z M237.953,126.563l-8.264,4.134l-8.269-4.134H237.953z M206.25,129.408
				l12.956,6.478l-12.956,6.478V129.408z"/>
			<path d="M28.125,154.688H93.75v-37.5H28.125V154.688z M84.375,129.408v12.956l-12.956-6.478L84.375,129.408z M52.673,145.312
				l8.265-4.134l8.269,4.134H52.673z M69.203,126.563l-8.264,4.134l-8.269-4.134H69.203z M37.5,129.408l12.956,6.478L37.5,142.364
				V129.408z"/>
			<path d="M290.625,71.822V46.875h-14.063v-18.75h10.692L280.224,0H10.402L3.37,28.125h10.692v18.75H0v24.947l14.063,18.75v12.553
				H9.375v9.375h4.688v46.875H9.375v9.375h4.688V225H9.375v9.375h4.688v32.813H0v23.438h112.5v-23.438h-4.688V168.75h4.688v-9.375
				h-4.256c2.536-18.75,15.769-29.47,32.381-31.552v3.427H150v-3.427c16.608,2.081,29.845,12.802,32.381,31.552h-4.256v9.375h4.688
				v98.438h-4.688v23.438h112.5v-23.438h-14.063v-32.813h4.688V225h-4.688v-56.25h4.688v-9.375h-4.688V112.5h4.688v-9.375h-4.688
				V90.572L290.625,71.822z M281.25,56.25v9.375h-14.063V56.25H281.25z M23.438,46.875v-18.75h243.75v18.75H23.438z M257.813,56.25
				v9.375H243.75V56.25H257.813z M234.377,56.25v9.375h-14.063V56.25H234.377z M210.938,56.25v9.375h-14.063V56.25H210.938z
				 M187.5,56.25v9.375h-14.063V56.25h0.001H187.5z M164.063,56.25v9.375H150V56.25H164.063z M140.627,56.25v9.375h-14.063V56.25
				H140.627z M117.188,56.25v9.375h-14.063V56.25H117.188z M93.75,56.25v9.375H79.688V56.25H93.75z M70.313,56.25v9.375H56.25V56.25
				H70.313z M46.875,56.25v9.375H32.813V56.25H46.875z M17.724,9.375h255.178l2.344,9.375H15.38L17.724,9.375z M9.375,65.625V56.25
				h14.063v9.375H9.375z M103.125,281.25H9.375v-4.688h93.75V281.25z M98.438,168.75v9.375h-75v-9.375H98.438z M23.438,159.375
				V112.5h75v46.875H23.438z M84.375,225v-37.5h14.063V225H84.375z M98.438,234.375v32.813H84.375v-32.813H98.438z M42.188,225
				v-37.5H75V225H42.188z M75,234.375v32.813H42.188v-32.813H75z M32.813,187.5V225h-9.375v-37.5H32.813z M32.813,234.375v32.813
				h-9.375v-32.813H32.813z M140.627,118.359c-13.407,1.336-25.131,8.368-32.813,18.6V112.5h32.813V118.359z M23.438,103.125V93.75
				h243.75v9.375H23.438z M257.813,225v-37.5h9.375V225H257.813z M267.188,234.375v32.813h-9.375v-32.813H267.188z M192.188,178.125
				v-9.375h75v9.375H192.188z M215.625,225v-37.5h32.813V225H215.625z M248.438,234.375v32.813h-32.813v-32.813H248.438z
				 M192.188,234.375h14.063v32.813h-14.063V234.375z M192.188,225v-37.5h14.063V225H192.188z M192.188,159.375V112.5h75v46.875
				H192.188z M182.813,136.959c-7.683-10.232-19.407-17.264-32.813-18.6V112.5h32.813V136.959z M281.25,276.562v4.688H187.5v-4.688
				H281.25z M269.532,84.375H21.094L14.063,75h262.5L269.532,84.375z"/>
			<rect x="37.5" y="32.813" width="9.375" height="9.375"/>
			<rect x="56.25" y="32.813" width="9.375" height="9.375"/>
			<rect x="75" y="32.813" width="9.375" height="9.375"/>
			<rect x="248.438" y="32.813" width="9.375" height="9.375"/>
			<rect x="229.688" y="32.813" width="9.375" height="9.375"/>
			<rect x="112.5" y="32.813" width="9.375" height="9.375"/>
			<rect x="46.875" y="253.125" width="9.375" height="9.375"/>
		</g>
	</g>
</g>
</svg>